HIERARCHY
ROOT newVegas:Hips
{
	OFFSET 0.000000 96.479958 0.000000
	CHANNELS 6 Xposition Yposition Zposition Xrotation Yrotation Zrotation
	JOINT newVegas:Pelvis
	{
		OFFSET 0.000000 0.000000 0.000000
		CHANNELS 3 Xrotation Yrotation Zrotation
		JOINT newVegas:LeftUpLeg
		{
			OFFSET 18.735201 -5.666702 -4.541200
			CHANNELS 3 Xrotation Yrotation Zrotation
			JOINT newVegas:LeftLeg
			{
				OFFSET -0.021200 -31.938179 0.493100
				CHANNELS 3 Xrotation Yrotation Zrotation
				JOINT newVegas:LeftFoot
				{
					OFFSET 0.021200 -31.938179 -4.336299
					CHANNELS 3 Xrotation Yrotation Zrotation
					JOINT newVegas:LeftToeBase
					{
						OFFSET 0.943001 -26.722000 15.023500
						CHANNELS 3 Xrotation Yrotation Zrotation
						End Site
						{
							OFFSET 0.000000 30.670183 0.000000
						}
					}
				}
				JOINT newVegas:Left_PantLeg
				{
					OFFSET 0.663870 -9.044666 -1.108900
					CHANNELS 3 Xrotation Yrotation Zrotation
					End Site
					{
						OFFSET 1.415995 20.635357 0.000000
					}
				}
			}
		}
		JOINT newVegas:RightUpLeg
		{
			OFFSET -18.735201 -5.666702 -4.541200
			CHANNELS 3 Xrotation Yrotation Zrotation
			JOINT newVegas:RightLeg
			{
				OFFSET 0.018946 -31.938133 0.493100
				CHANNELS 3 Xrotation Yrotation Zrotation
				JOINT newVegas:RightFoot
				{
					OFFSET -0.018946 -31.938126 -4.336299
					CHANNELS 3 Xrotation Yrotation Zrotation
					JOINT newVegas:RightToeBase
					{
						OFFSET -0.943001 -26.722004 15.023500
						CHANNELS 3 Xrotation Yrotation Zrotation
						End Site
						{
							OFFSET 0.000000 30.670187 0.000000
						}
					}
				}
				JOINT newVegas:Right_PantLeg
				{
					OFFSET -0.661674 -9.044716 -1.108900
					CHANNELS 3 Xrotation Yrotation Zrotation
					End Site
					{
						OFFSET -1.415958 20.635269 0.000000
					}
				}
			}
		}
	}
	JOINT newVegas:Spine
	{
		OFFSET 0.000000 10.199997 -0.299500
		CHANNELS 3 Xrotation Yrotation Zrotation
		JOINT newVegas:Spine1
		{
			OFFSET 0.000000 11.900002 -1.516600
			CHANNELS 3 Xrotation Yrotation Zrotation
			JOINT newVegas:Spine2
			{
				OFFSET 0.000000 13.600006 -2.842500
				CHANNELS 3 Xrotation Yrotation Zrotation
				JOINT newVegas:Neck
				{
					OFFSET 0.000000 9.624100 -2.890100
					CHANNELS 3 Xrotation Yrotation Zrotation
					JOINT newVegas:Head
					{
						OFFSET 0.000000 14.068802 -1.351900
						CHANNELS 3 Xrotation Yrotation Zrotation
						JOINT newVegas:Hair_Back
						{
							OFFSET 0.000000 3.231903 -17.524799
							CHANNELS 3 Xrotation Yrotation Zrotation
							End Site
							{
								OFFSET 0.000000 19.849884 0.000000
							}
						}
						JOINT newVegas:Hair_Front
						{
							OFFSET 0.000000 31.260406 4.573800
							CHANNELS 3 Xrotation Yrotation Zrotation
							JOINT newVegas:Hair_Front1
							{
								OFFSET 0.000000 2.284103 11.993300
								CHANNELS 3 Xrotation Yrotation Zrotation
								JOINT newVegas:Hair_Front2
								{
									OFFSET 0.000000 2.284103 11.993300
									CHANNELS 3 Xrotation Yrotation Zrotation
									End Site
									{
										OFFSET 0.000000 12.208862 0.000000
									}
								}
							}
						}
						JOINT newVegas:Jowel
						{
							OFFSET 0.000000 -7.458206 6.864100
							CHANNELS 3 Xrotation Yrotation Zrotation
							End Site
							{
								OFFSET 0.000000 19.849884 0.000000
							}
						}
					}
				}
				JOINT newVegas:LeftShoulder
				{
					OFFSET 15.263000 10.923401 -0.547700
					CHANNELS 3 Xrotation Yrotation Zrotation
					JOINT newVegas:LeftArm
					{
						OFFSET 25.438599 -2.830597 -13.032500
						CHANNELS 3 Xrotation Yrotation Zrotation
						JOINT newVegas:LeftForeArm
						{
							OFFSET 29.960503 0.000000 0.000000
							CHANNELS 3 Xrotation Yrotation Zrotation
							JOINT newVegas:LeftHand
							{
								OFFSET 27.849251 0.000000 0.000000
								CHANNELS 3 Xrotation Yrotation Zrotation
								JOINT newVegas:LeftHandThumb1
								{
									OFFSET 4.487587 -3.305161 6.305391
									CHANNELS 3 Xrotation Yrotation Zrotation
									JOINT newVegas:LeftHandThumb2
									{
										OFFSET 5.480453 -3.164139 3.164143
										CHANNELS 3 Xrotation Yrotation Zrotation
										JOINT newVegas:LeftHandThumb3
										{
											OFFSET 5.159721 -2.978973 2.978967
											CHANNELS 3 Xrotation Yrotation Zrotation
											End Site
											{
												OFFSET 2.494507 5.926697 1.738678
											}
										}
									}
								}
								JOINT newVegas:LeftHandIndex1
								{
									OFFSET 18.578728 -0.527832 5.208049
									CHANNELS 3 Xrotation Yrotation Zrotation
									JOINT newVegas:LeftHandIndex2
									{
										OFFSET 3.192009 0.000000 0.000000
										CHANNELS 3 Xrotation Yrotation Zrotation
										JOINT newVegas:LeftHandIndex3
										{
											OFFSET 3.835129 0.000000 0.000000
											CHANNELS 3 Xrotation Yrotation Zrotation
											End Site
											{
												OFFSET -0.034599 3.816971 0.371180
											}
										}
									}
								}
								JOINT newVegas:LeftHandMiddle1
								{
									OFFSET 18.476105 0.000000 0.000000
									CHANNELS 3 Xrotation Yrotation Zrotation
									JOINT newVegas:LeftHandMiddle2
									{
										OFFSET 3.324875 0.000000 0.000000
										CHANNELS 3 Xrotation Yrotation Zrotation
										JOINT newVegas:LeftHandMiddle3
										{
											OFFSET 4.596550 0.000000 0.000000
											CHANNELS 3 Xrotation Yrotation Zrotation
											End Site
											{
												OFFSET 0.057701 4.578827 0.399218
											}
										}
									}
								}
								JOINT newVegas:LeftHandRing1
								{
									OFFSET 17.732719 0.121887 -4.201567
									CHANNELS 3 Xrotation Yrotation Zrotation
									JOINT newVegas:LeftHandRing2
									{
										OFFSET 2.733170 0.000000 0.000000
										CHANNELS 3 Xrotation Yrotation Zrotation
										JOINT newVegas:LeftHandRing3
										{
											OFFSET 3.178268 0.000000 0.000000
											CHANNELS 3 Xrotation Yrotation Zrotation
											End Site
											{
												OFFSET 0.119102 3.170624 0.185394
											}
										}
									}
								}
								JOINT newVegas:LeftHandPinky1
								{
									OFFSET 15.989624 -0.606689 -7.535461
									CHANNELS 3 Xrotation Yrotation Zrotation
									JOINT newVegas:LeftHandPinky2
									{
										OFFSET 2.538986 0.000000 0.000000
										CHANNELS 3 Xrotation Yrotation Zrotation
										JOINT newVegas:LeftHandPinky3
										{
											OFFSET 2.593102 0.000000 0.000000
											CHANNELS 3 Xrotation Yrotation Zrotation
											End Site
											{
												OFFSET -0.150902 2.584198 0.152708
											}
										}
									}
								}
							}
							JOINT newVegas:Left_Sleeve
							{
								OFFSET 0.267448 -0.649796 0.577675
								CHANNELS 3 Xrotation Yrotation Zrotation
								End Site
								{
									OFFSET 0.000000 15.991241 0.000000
								}
							}
							JOINT newVegas:Left_CapeC
							{
								OFFSET 15.715958 -8.608795 -6.935905
								CHANNELS 3 Xrotation Yrotation Zrotation
								JOINT newVegas:Left_CapeC1
								{
									OFFSET 0.000000 -8.688499 0.000000
									CHANNELS 3 Xrotation Yrotation Zrotation
									End Site
									{
										OFFSET 0.000000 8.688499 0.000000
									}
								}
							}
						}
						JOINT newVegas:Left_CapeB
						{
							OFFSET 26.118385 -8.608795 -7.079235
							CHANNELS 3 Xrotation Yrotation Zrotation
							JOINT newVegas:Left_CapeB1
							{
								OFFSET 0.000000 -8.688499 0.000000
								CHANNELS 3 Xrotation Yrotation Zrotation
								End Site
								{
									OFFSET 0.000000 8.688499 0.000000
								}
							}
						}
						JOINT newVegas:Left_CapeA
						{
							OFFSET 5.115639 -8.608795 -10.395809
							CHANNELS 3 Xrotation Yrotation Zrotation
							JOINT newVegas:Left_CapeA1
							{
								OFFSET 0.000000 -8.688499 0.000000
								CHANNELS 3 Xrotation Yrotation Zrotation
								End Site
								{
									OFFSET 0.000000 8.688499 0.000000
								}
							}
						}
					}
				}
				JOINT newVegas:RightShoulder
				{
					OFFSET -15.263000 10.923401 -0.547700
					CHANNELS 3 Xrotation Yrotation Zrotation
					JOINT newVegas:RightArm
					{
						OFFSET -25.438599 -2.830597 -13.032500
						CHANNELS 3 Xrotation Yrotation Zrotation
						JOINT newVegas:RightForeArm
						{
							OFFSET -29.960503 0.000000 0.000000
							CHANNELS 3 Xrotation Yrotation Zrotation
							JOINT newVegas:RightHand
							{
								OFFSET -27.849251 0.000000 0.000000
								CHANNELS 3 Xrotation Yrotation Zrotation
								JOINT newVegas:RightHandThumb1
								{
									OFFSET -4.487587 -3.305161 6.305391
									CHANNELS 3 Xrotation Yrotation Zrotation
									JOINT newVegas:RightHandThumb2
									{
										OFFSET -5.480453 -3.164139 3.164143
										CHANNELS 3 Xrotation Yrotation Zrotation
										JOINT newVegas:RightHandThumb3
										{
											OFFSET -5.159721 -2.978973 2.978967
											CHANNELS 3 Xrotation Yrotation Zrotation
											End Site
											{
												OFFSET -2.494507 5.926697 1.738678
											}
										}
									}
								}
								JOINT newVegas:RightHandIndex1
								{
									OFFSET -18.578728 -0.527832 5.208049
									CHANNELS 3 Xrotation Yrotation Zrotation
									JOINT newVegas:RightHandIndex2
									{
										OFFSET -3.192009 0.000000 0.000000
										CHANNELS 3 Xrotation Yrotation Zrotation
										JOINT newVegas:RightHandIndex3
										{
											OFFSET -3.835129 0.000000 0.000000
											CHANNELS 3 Xrotation Yrotation Zrotation
											End Site
											{
												OFFSET 0.034599 3.816971 0.371180
											}
										}
									}
								}
								JOINT newVegas:RightHandMiddle1
								{
									OFFSET -18.476105 0.000000 0.000000
									CHANNELS 3 Xrotation Yrotation Zrotation
									JOINT newVegas:RightHandMiddle2
									{
										OFFSET -3.324875 0.000000 0.000000
										CHANNELS 3 Xrotation Yrotation Zrotation
										JOINT newVegas:RightHandMiddle3
										{
											OFFSET -4.596550 0.000000 0.000000
											CHANNELS 3 Xrotation Yrotation Zrotation
											End Site
											{
												OFFSET -0.057701 4.578827 0.399218
											}
										}
									}
								}
								JOINT newVegas:RightHandRing1
								{
									OFFSET -17.732719 0.121887 -4.201567
									CHANNELS 3 Xrotation Yrotation Zrotation
									JOINT newVegas:RightHandRing2
									{
										OFFSET -2.733170 0.000000 0.000000
										CHANNELS 3 Xrotation Yrotation Zrotation
										JOINT newVegas:RightHandRing3
										{
											OFFSET -3.178268 0.000000 0.000000
											CHANNELS 3 Xrotation Yrotation Zrotation
											End Site
											{
												OFFSET -0.119102 3.170624 0.185394
											}
										}
									}
								}
								JOINT newVegas:RightHandPinky1
								{
									OFFSET -15.989624 -0.606689 -7.535461
									CHANNELS 3 Xrotation Yrotation Zrotation
									JOINT newVegas:RightHandPinky2
									{
										OFFSET -2.538986 0.000000 0.000000
										CHANNELS 3 Xrotation Yrotation Zrotation
										JOINT newVegas:RightHandPinky3
										{
											OFFSET -2.593102 0.000000 0.000000
											CHANNELS 3 Xrotation Yrotation Zrotation
											End Site
											{
												OFFSET 0.150902 2.584198 0.152708
											}
										}
									}
								}
							}
							JOINT newVegas:Right_CapeC
							{
								OFFSET -15.715958 -8.608795 -6.935905
								CHANNELS 3 Xrotation Yrotation Zrotation
								JOINT newVegas:Right_CapeC1
								{
									OFFSET 0.000000 -8.688499 0.000000
									CHANNELS 3 Xrotation Yrotation Zrotation
									End Site
									{
										OFFSET 0.000000 8.688499 0.000000
									}
								}
							}
							JOINT newVegas:Right_Sleeve
							{
								OFFSET -0.267448 -0.649994 0.577675
								CHANNELS 3 Xrotation Yrotation Zrotation
								End Site
								{
									OFFSET 0.000000 15.991302 0.000000
								}
							}
						}
						JOINT newVegas:Right_CapeA
						{
							OFFSET -5.115540 -8.608795 -10.395824
							CHANNELS 3 Xrotation Yrotation Zrotation
							JOINT newVegas:Right_CapeA1
							{
								OFFSET 0.000000 -8.688499 0.000000
								CHANNELS 3 Xrotation Yrotation Zrotation
								End Site
								{
									OFFSET 0.000000 8.688499 0.000000
								}
							}
						}
						JOINT newVegas:Right_CapeB
						{
							OFFSET -26.118187 -8.608795 -7.079266
							CHANNELS 3 Xrotation Yrotation Zrotation
							JOINT newVegas:Right_CapeB1
							{
								OFFSET 0.000000 -8.688499 0.000000
								CHANNELS 3 Xrotation Yrotation Zrotation
								End Site
								{
									OFFSET 0.000000 8.688499 0.000000
								}
							}
						}
					}
				}
				JOINT newVegas:Left_Collar
				{
					OFFSET 18.625099 8.655502 8.828100
					CHANNELS 3 Xrotation Yrotation Zrotation
					JOINT newVegas:Left_Collar1
					{
						OFFSET 14.783401 10.540405 -1.259500
						CHANNELS 3 Xrotation Yrotation Zrotation
						End Site
						{
							OFFSET 0.000000 18.199875 0.000000
						}
					}
				}
				JOINT newVegas:Collar_Back
				{
					OFFSET 0.000000 15.630707 -20.132601
					CHANNELS 3 Xrotation Yrotation Zrotation
					End Site
					{
						OFFSET 0.000000 22.523010 0.000000
					}
				}
				JOINT newVegas:Left_Peck
				{
					OFFSET 17.239599 -5.132599 25.482599
					CHANNELS 3 Xrotation Yrotation Zrotation
					End Site
					{
						OFFSET 0.000000 22.523010 0.000000
					}
				}
				JOINT newVegas:Right_Peck
				{
					OFFSET -17.239599 -5.132202 25.482599
					CHANNELS 3 Xrotation Yrotation Zrotation
					End Site
					{
						OFFSET 0.000000 22.523010 0.000000
					}
				}
				JOINT newVegas:Right_Collar
				{
					OFFSET -18.625099 8.655792 8.828100
					CHANNELS 3 Xrotation Yrotation Zrotation
					JOINT newVegas:Right_Collar1
					{
						OFFSET -14.783401 10.539993 -1.259500
						CHANNELS 3 Xrotation Yrotation Zrotation
						End Site
						{
							OFFSET 0.000000 18.199631 0.000000
						}
					}
				}
			}
		}
		JOINT newVegas:Belly
		{
			OFFSET 0.000000 -6.540398 9.014299
			CHANNELS 3 Xrotation Yrotation Zrotation
			End Site
			{
				OFFSET 0.000000 11.566666 0.000000
			}
		}
	}
	JOINT newVegas:ElvisFacialAnim_Joint
	{
		OFFSET 1.000000 -95.330101 -8.825800
		CHANNELS 3 Xrotation Yrotation Zrotation
		End Site
		{
			OFFSET 0.000000 35.315800 0.000000
		}
	}
}
MOTION
Frames: 4
Frame Time: 0.033333
0.024412 94.331718 7.827390 -7.330313 -15.090540 -4.130633 -0.000000 -0.000001 -0.000000 -8.124501 15.205661 13.521374 27.833957 9.378251 3.092730 -10.880918 2.417503 -11.858376 0.000000 -0.000000 0.000000 0.000001 -0.000000 -0.000000 -0.080686 -9.296804 -1.090851 19.301534 -7.936022 -3.524698 -11.524532 4.870041 7.130044 0.000000 -0.000001 -0.000000 0.000001 0.000001 -0.000000 2.840687 0.847493 2.946321 0.328129 -0.995409 2.770492 0.300775 -0.985958 2.764668 0.529265 -0.670245 1.467318 0.529267 -0.670237 1.467314 -0.000000 0.000000 -0.000001 0.529265 -0.670260 1.467323 0.529335 -0.670245 1.467317 -0.000000 0.000001 -0.000001 -0.000000 0.000000 -0.000001 1.158048 -17.867409 -11.693385 5.773539 -20.528767 -71.869518 -0.000000 -1.723362 -0.000002 -34.035820 -1.030509 -6.513277 -0.671240 2.169776 4.725476 11.836693 25.404253 17.079872 -0.000002 0.000002 -0.000004 0.033491 -0.992043 -7.426053 0.267417 1.751420 -17.360584 -0.000002 0.000000 0.000002 -0.073721 2.652040 -15.428554 0.265578 1.745536 -17.300434 -0.000000 -0.000001 0.000001 0.142130 3.656762 -21.168766 0.388569 2.099862 -20.964940 0.000004 -0.000004 -0.000006 0.903891 5.515256 -27.088020 0.268601 1.755195 -17.399340 -0.000001 -0.000002 -0.000001 -0.000000 0.000000 -0.000001 -0.000000 0.000000 -0.000001 -0.000001 0.000000 -0.000001 -0.000003 -0.000001 0.000001 -0.000003 0.000000 0.000001 -0.000003 -0.000001 0.000001 -0.000005 -0.000000 0.000001 1.693927 12.662223 11.224583 9.568721 14.737315 59.403753 0.000003 4.549253 0.000008 -31.375642 4.336980 2.730105 -2.948545 2.757190 -5.266151 9.489752 -23.475372 -16.804738 0.000002 -0.000000 -0.000001 -0.129115 2.151809 5.865879 0.112855 -1.020117 12.625809 -0.000001 0.000002 -0.000000 -0.047418 -2.692890 17.463440 0.290841 -1.621572 20.335380 0.000000 0.000001 0.000003 0.395843 -4.054519 24.205425 0.440091 -1.978010 25.084525 -0.000000 0.000004 0.000002 1.072734 -5.882174 28.245786 0.233826 -1.458576 18.214134 -0.000001 -0.000002 0.000005 0.000001 0.000000 0.000000 -0.000000 0.000000 0.000000 0.000001 0.000000 -0.000000 0.000000 0.000000 0.000001 0.000001 0.000000 0.000001 0.000000 0.000000 0.000001 0.000001 -0.000000 0.000001 -0.000000 0.000000 -0.000000 -0.000000 0.000000 -0.000000 -0.000000 0.000000 -0.000000 -0.000000 0.000000 -0.000000 -0.000000 0.000000 -0.000000 -0.000000 0.000000 -0.000000 -0.000000 0.000000 -0.000000 -0.000000 -0.000001 0.000000 -0.000000 -0.000001 -0.000000 
-0.003433 94.333763 7.807128 -7.396744 -14.677030 -4.013053 -0.000000 -0.000001 -0.000000 -8.214304 15.204985 13.494888 27.769203 9.379368 3.153440 -10.688315 1.972780 -11.898777 -0.000000 0.000001 -0.000000 -0.000001 -0.000001 0.000000 0.075620 -9.334983 -1.095271 19.429624 -7.938277 -3.530995 -11.697067 4.473873 7.094524 0.000000 -0.000001 0.000000 -0.000000 -0.000001 0.000000 2.838880 0.870057 2.939886 0.326208 -0.951535 2.767801 0.299230 -0.941868 2.762421 0.700708 -0.377459 1.215126 0.700705 -0.377457 1.215115 0.000000 -0.000000 -0.000000 0.700637 -0.377484 1.215129 0.700861 -0.377450 1.215128 -0.000000 0.000000 -0.000001 0.000000 -0.000000 -0.000000 1.143361 -17.741877 -11.764560 5.854124 -20.603817 -71.600047 -0.000004 -1.775836 -0.000007 -34.031056 -1.114643 -6.521194 -0.663318 2.180528 4.756256 11.831498 25.411681 17.082901 0.000002 -0.000000 -0.000003 0.067634 -0.950399 -7.444779 0.267791 1.752636 -17.373049 0.000002 -0.000001 -0.000002 -0.074698 2.656824 -15.525273 0.265764 1.746125 -17.306523 -0.000000 0.000001 0.000003 0.144654 3.666399 -21.242489 0.388879 2.100679 -20.973551 -0.000002 0.000001 0.000002 0.905897 5.521502 -27.102226 0.268655 1.755381 -17.401191 -0.000000 -0.000003 0.000001 -0.000003 0.000001 0.000001 -0.000003 0.000001 0.000001 -0.000004 0.000001 0.000001 -0.000003 -0.000001 0.000000 -0.000003 -0.000001 0.000000 -0.000003 -0.000001 0.000000 -0.000005 -0.000000 0.000000 1.511688 12.687041 12.426465 10.166627 15.477439 58.987856 -0.000002 3.668431 -0.000012 -28.473158 2.625506 3.240121 -2.588315 1.958856 -5.160152 9.938151 -24.402984 -16.720464 0.000001 -0.000003 0.000001 0.033796 1.922970 4.784560 0.114633 -1.028004 12.725100 0.000000 0.000000 0.000000 -0.142123 -2.314083 16.513060 0.292211 -1.625263 20.383702 -0.000001 -0.000001 0.000002 0.358075 -3.957776 22.596498 0.417357 -1.928709 24.417593 0.000001 0.000002 -0.000000 0.870905 -5.472361 26.626553 0.232839 -1.455594 18.175555 -0.000001 0.000003 0.000002 -0.000001 -0.000000 0.000000 -0.000001 -0.000001 -0.000000 -0.000001 -0.000000 0.000000 0.000000 0.000000 -0.000002 0.000000 0.000000 -0.000001 0.000000 0.000000 -0.000002 0.000000 -0.000001 -0.000001 -0.000000 0.000000 0.000000 -0.000000 0.000000 0.000000 -0.000000 0.000000 0.000000 -0.000000 0.000000 0.000000 -0.000000 0.000000 0.000000 -0.000000 0.000000 0.000000 -0.000000 0.000000 0.000000 -0.000000 -0.000000 -0.000000 -0.000000 -0.000001 -0.000000 
-0.033472 94.336044 7.773893 -7.441968 -14.213736 -3.890804 0.000000 -0.000001 -0.000000 -8.355605 15.201611 13.451553 27.710576 9.157523 3.231741 -10.494466 1.709632 -11.860613 -0.000000 -0.000000 -0.000000 -0.000000 0.000001 -0.000000 0.249380 -9.375795 -1.073366 19.506481 -7.940089 -3.532590 -11.856650 4.029522 7.040981 -0.000000 0.000001 0.000000 0.000000 -0.000001 0.000001 2.842150 0.894111 2.928677 0.332798 -0.904302 2.762040 0.306152 -0.894761 2.754169 0.885439 -0.097866 0.960018 0.885465 -0.097862 0.960007 -0.000000 0.000000 -0.000000 0.885464 -0.097872 0.960007 0.885730 -0.097805 0.960000 -0.000000 -0.000000 -0.000001 -0.000000 0.000000 -0.000000 1.124274 -17.570744 -11.857613 5.857371 -20.614008 -71.326101 0.000004 -1.807385 -0.000002 -34.062440 -1.259810 -6.467126 -0.677158 2.151867 4.788556 11.834238 25.373753 17.077223 -0.000000 0.000000 -0.000001 0.074367 -0.941208 -7.459659 0.267921 1.753052 -17.377376 -0.000001 0.000000 0.000001 -0.078089 2.649338 -15.580925 0.265971 1.746794 -17.313406 -0.000001 0.000001 0.000000 0.145020 3.669375 -21.290871 0.389101 2.101252 -20.979500 0.000002 -0.000001 -0.000001 0.904358 5.524440 -27.109463 0.268660 1.755399 -17.401468 -0.000001 -0.000003 -0.000000 -0.000003 -0.000000 -0.000001 -0.000003 -0.000000 -0.000001 -0.000004 0.000000 -0.000001 -0.000001 -0.000001 0.000001 -0.000001 -0.000001 0.000001 -0.000001 -0.000001 0.000001 -0.000002 -0.000000 0.000001 1.341293 12.709205 13.550494 10.810146 16.163650 58.668620 0.000007 3.106518 0.000028 -26.404740 1.099821 4.147972 -2.437227 1.539217 -4.790348 10.572112 -25.689165 -16.596301 0.000000 -0.000000 -0.000001 0.098490 1.443325 5.416551 0.127169 -1.082017 13.405982 -0.000000 -0.000000 -0.000000 -0.203591 -2.102517 16.479947 0.358784 -1.794193 22.614709 0.000001 -0.000000 -0.000000 0.384165 -4.022818 20.588097 0.426051 -1.947748 24.674598 0.000000 0.000001 0.000001 0.881425 -5.200546 26.162247 0.232798 -1.455463 18.173854 0.000001 -0.000000 -0.000000 -0.000000 0.000000 0.000001 -0.000000 -0.000000 -0.000000 -0.000000 0.000000 0.000000 0.000004 0.000001 -0.000000 0.000004 0.000001 -0.000001 0.000004 0.000001 -0.000000 0.000004 0.000001 -0.000001 0.000000 -0.000001 0.000000 0.000000 -0.000001 0.000000 0.000000 -0.000001 0.000000 0.000000 -0.000001 0.000000 0.000000 -0.000001 0.000000 0.000000 -0.000001 0.000000 0.000000 -0.000001 0.000000 0.000000 0.000000 -0.000000 0.000000 -0.000001 -0.000000 
-0.063045 94.341125 7.727807 -7.462809 -13.715699 -3.767055 0.000001 0.000000 0.000000 -8.543627 15.191708 13.387738 27.642843 8.682012 3.328426 -10.291936 1.674629 -11.729836 0.000000 -0.000000 -0.000000 -0.000001 0.000000 0.000001 0.423705 -9.416036 -1.025923 19.533171 -7.939347 -3.533929 -11.984650 3.554013 6.971869 0.000000 0.000002 -0.000000 0.000001 0.000004 -0.000000 2.854522 0.922411 2.910984 0.350559 -0.849008 2.744842 0.324282 -0.839207 2.736971 1.066855 0.148344 0.710709 1.066859 0.148345 0.710710 0.000000 0.000000 -0.000000 1.066791 0.148365 0.710705 1.066931 0.148338 0.710707 0.000000 0.000000 -0.000000 0.000000 0.000000 0.000000 1.100747 -17.389387 -11.980666 5.823594 -20.622016 -71.019904 0.000007 -1.810592 -0.000001 -34.070315 -1.402173 -6.416027 -0.684341 2.136944 4.800953 11.831125 25.381027 17.080415 -0.000000 -0.000001 -0.000001 0.055813 -0.956590 -7.480305 0.267856 1.752864 -17.375393 -0.000002 -0.000000 -0.000001 -0.083375 2.632384 -15.604834 0.266081 1.747142 -17.316900 0.000001 -0.000000 -0.000000 0.138757 3.652078 -21.261891 0.389225 2.101555 -20.982792 0.000002 -0.000001 -0.000002 0.894998 5.512940 -27.117584 0.268200 1.753933 -17.386480 -0.000001 -0.000003 0.000003 -0.000000 0.000000 -0.000000 -0.000000 0.000000 -0.000000 -0.000001 0.000000 0.000000 -0.000003 -0.000001 0.000000 -0.000003 -0.000001 0.000000 -0.000003 -0.000001 0.000000 -0.000005 -0.000000 0.000000 1.192650 12.741844 14.532211 11.519803 16.822032 58.440055 -0.000000 2.935396 -0.000012 -25.069986 -0.069222 5.118184 -2.189118 0.730589 -3.543354 12.488565 -29.403138 -16.177235 0.000000 -0.000000 -0.000001 0.029089 0.327681 10.571590 0.160670 -1.213971 15.077885 0.000000 0.000000 0.000001 0.200936 -3.504253 19.684684 0.432680 -1.962113 24.869113 0.000001 -0.000001 -0.000001 0.634684 -4.581364 24.281635 0.490536 -2.082307 26.508463 -0.000000 0.000001 -0.000000 1.053264 -5.522304 30.266303 0.229577 -1.445612 18.046582 0.000000 0.000005 -0.000001 -0.000001 -0.000000 -0.000000 -0.000001 -0.000000 -0.000000 -0.000001 -0.000000 -0.000000 -0.000000 0.000001 -0.000000 -0.000000 0.000000 0.000000 -0.000000 0.000001 -0.000000 -0.000000 -0.000000 0.000000 -0.000000 0.000001 -0.000000 -0.000000 0.000001 -0.000000 -0.000000 0.000001 -0.000000 -0.000000 0.000001 -0.000000 -0.000000 0.000001 -0.000000 -0.000000 0.000001 -0.000000 -0.000000 0.000001 -0.000000 0.000000 0.000001 0.000000 0.000001 0.000000 0.000000 
